<?xml version="1.0" encoding="UTF-8" standalone="no"?>
<!DOCTYPE svg PUBLIC "-//W3C//DTD SVG 1.1//EN"
 "http://www.w3.org/Graphics/SVG/1.1/DTD/svg11.dtd">
<!-- Generated by graphviz version 2.38.0 (20140413.2041)
 -->
<!-- Title: controllers_diagram Pages: 1 -->
<svg width="767pt" height="828pt"
 viewBox="0.00 0.00 766.62 827.68" xmlns="http://www.w3.org/2000/svg" xmlns:xlink="http://www.w3.org/1999/xlink">
<g id="graph0" class="graph" transform="scale(1 1) rotate(0) translate(268.9 399.866)">
<title>controllers_diagram</title>
<polygon fill="white" stroke="none" points="-268.9,427.813 -268.9,-399.866 497.72,-399.866 497.72,427.813 -268.9,427.813"/>
<!-- _diagram_info -->
<g id="node1" class="node"><title>_diagram_info</title>
<text text-anchor="start" x="326.28" y="258.9" font-family="Times,serif" font-size="13.00">Controllers diagram</text>
<text text-anchor="start" x="326.28" y="271.9" font-family="Times,serif" font-size="13.00">Date: Aug 26 2014 &#45; 15:26</text>
<text text-anchor="start" x="326.28" y="284.9" font-family="Times,serif" font-size="13.00">Migration version: 0</text>
<text text-anchor="start" x="326.28" y="297.9" font-family="Times,serif" font-size="13.00">Generated by RailRoady 1.1.2</text>
<text text-anchor="start" x="326.28" y="310.9" font-family="Times,serif" font-size="13.00">http://railroady.prestonlee.com</text>
</g>
<!-- ApplicationController -->
<g id="node2" class="node"><title>ApplicationController</title>
<path fill="none" stroke="black" d="M-82.3049,77.0784C-82.3049,77.0784 91.6268,77.0784 91.6268,77.0784 97.6268,77.0784 103.627,71.0784 103.627,65.0784 103.627,65.0784 103.627,-12.9216 103.627,-12.9216 103.627,-18.9216 97.6268,-24.9216 91.6268,-24.9216 91.6268,-24.9216 -82.3049,-24.9216 -82.3049,-24.9216 -88.3049,-24.9216 -94.3049,-18.9216 -94.3049,-12.9216 -94.3049,-12.9216 -94.3049,65.0784 -94.3049,65.0784 -94.3049,71.0784 -88.3049,77.0784 -82.3049,77.0784"/>
<text text-anchor="middle" x="4.66093" y="-9.72164" font-family="Times,serif" font-size="14.00">ApplicationController</text>
<polyline fill="none" stroke="black" points="-94.3049,-2.92164 103.627,-2.92164 "/>
<text text-anchor="start" x="-86.3049" y="12.2784" font-family="Times,serif" font-size="14.00">after_sign_in_path_for</text>
<text text-anchor="start" x="-86.3049" y="26.2784" font-family="Times,serif" font-size="14.00">store_location</text>
<polyline fill="none" stroke="black" points="-94.3049,33.0784 103.627,33.0784 "/>
<text text-anchor="start" x="-86.3049" y="48.2784" font-family="Times,serif" font-size="14.00">configure_permitted_parameters</text>
<polyline fill="none" stroke="black" points="-94.3049,55.0784 103.627,55.0784 "/>
<text text-anchor="start" x="-86.3049" y="70.2784" font-family="Times,serif" font-size="14.00">_layout</text>
</g>
<!-- AssociationsController -->
<g id="node3" class="node"><title>AssociationsController</title>
<path fill="none" stroke="black" d="M140.282,72.9458C140.282,72.9458 261.379,72.9458 261.379,72.9458 267.379,72.9458 273.379,66.9458 273.379,60.9458 273.379,60.9458 273.379,-19.0542 273.379,-19.0542 273.379,-25.0542 267.379,-31.0542 261.379,-31.0542 261.379,-31.0542 140.282,-31.0542 140.282,-31.0542 134.282,-31.0542 128.282,-25.0542 128.282,-19.0542 128.282,-19.0542 128.282,60.9458 128.282,60.9458 128.282,66.9458 134.282,72.9458 140.282,72.9458"/>
<text text-anchor="middle" x="200.83" y="-15.8542" font-family="Times,serif" font-size="14.00">AssociationsController</text>
<polyline fill="none" stroke="black" points="128.282,-9.05421 273.379,-9.05421 "/>
<text text-anchor="start" x="136.282" y="6.14579" font-family="Times,serif" font-size="14.00">create</text>
<text text-anchor="start" x="136.282" y="20.1458" font-family="Times,serif" font-size="14.00">destroy</text>
<polyline fill="none" stroke="black" points="128.282,26.9458 273.379,26.9458 "/>
<polyline fill="none" stroke="black" points="128.282,50.9458 273.379,50.9458 "/>
<text text-anchor="start" x="136.282" y="66.1458" font-family="Times,serif" font-size="14.00">_layout</text>
</g>
<!-- ApplicationController&#45;&gt;AssociationsController -->
<g id="edge1" class="edge"><title>ApplicationController&#45;&gt;AssociationsController</title>
<path fill="none" stroke="black" d="M103.895,23.482C112.068,23.2682 120.23,23.0546 128.154,22.8473"/>
</g>
<!-- DebatesController -->
<g id="node4" class="node"><title>DebatesController</title>
<path fill="none" stroke="black" d="M-179.841,423.313C-179.841,423.313 -85.2066,423.313 -85.2066,423.313 -79.2066,423.313 -73.2066,417.313 -73.2066,411.313 -73.2066,411.313 -73.2066,219.313 -73.2066,219.313 -73.2066,213.313 -79.2066,207.313 -85.2066,207.313 -85.2066,207.313 -179.841,207.313 -179.841,207.313 -185.841,207.313 -191.841,213.313 -191.841,219.313 -191.841,219.313 -191.841,411.313 -191.841,411.313 -191.841,417.313 -185.841,423.313 -179.841,423.313"/>
<text text-anchor="middle" x="-132.524" y="222.513" font-family="Times,serif" font-size="14.00">DebatesController</text>
<polyline fill="none" stroke="black" points="-191.841,229.313 -73.2066,229.313 "/>
<text text-anchor="start" x="-183.841" y="244.513" font-family="Times,serif" font-size="14.00">create</text>
<text text-anchor="start" x="-183.841" y="258.513" font-family="Times,serif" font-size="14.00">destroy</text>
<text text-anchor="start" x="-183.841" y="272.513" font-family="Times,serif" font-size="14.00">edit</text>
<text text-anchor="start" x="-183.841" y="286.513" font-family="Times,serif" font-size="14.00">important</text>
<text text-anchor="start" x="-183.841" y="300.513" font-family="Times,serif" font-size="14.00">index</text>
<text text-anchor="start" x="-183.841" y="314.513" font-family="Times,serif" font-size="14.00">new</text>
<text text-anchor="start" x="-183.841" y="328.513" font-family="Times,serif" font-size="14.00">show</text>
<text text-anchor="start" x="-183.841" y="342.513" font-family="Times,serif" font-size="14.00">unimportant</text>
<text text-anchor="start" x="-183.841" y="356.513" font-family="Times,serif" font-size="14.00">update</text>
<polyline fill="none" stroke="black" points="-191.841,363.313 -73.2066,363.313 "/>
<polyline fill="none" stroke="black" points="-191.841,387.313 -73.2066,387.313 "/>
<text text-anchor="start" x="-183.841" y="402.513" font-family="Times,serif" font-size="14.00">_layout</text>
<text text-anchor="start" x="-183.841" y="416.513" font-family="Times,serif" font-size="14.00">debate_params</text>
</g>
<!-- ApplicationController&#45;&gt;DebatesController -->
<g id="edge2" class="edge"><title>ApplicationController&#45;&gt;DebatesController</title>
<path fill="none" stroke="black" d="M-19.5492,77.1219C-36.6254,113.125 -60.133,162.687 -81.2844,207.282"/>
</g>
<!-- FindingsController -->
<g id="node5" class="node"><title>FindingsController</title>
<path fill="none" stroke="black" d="M-242.737,-22.3611C-242.737,-22.3611 -144.178,-22.3611 -144.178,-22.3611 -138.178,-22.3611 -132.178,-28.3611 -132.178,-34.3611 -132.178,-34.3611 -132.178,-114.361 -132.178,-114.361 -132.178,-120.361 -138.178,-126.361 -144.178,-126.361 -144.178,-126.361 -242.737,-126.361 -242.737,-126.361 -248.737,-126.361 -254.737,-120.361 -254.737,-114.361 -254.737,-114.361 -254.737,-34.3611 -254.737,-34.3611 -254.737,-28.3611 -248.737,-22.3611 -242.737,-22.3611"/>
<text text-anchor="middle" x="-193.457" y="-111.161" font-family="Times,serif" font-size="14.00">FindingsController</text>
<polyline fill="none" stroke="black" points="-254.737,-104.361 -132.178,-104.361 "/>
<text text-anchor="start" x="-246.737" y="-89.1611" font-family="Times,serif" font-size="14.00">index</text>
<text text-anchor="start" x="-246.737" y="-75.1611" font-family="Times,serif" font-size="14.00">search</text>
<polyline fill="none" stroke="black" points="-254.737,-68.3611 -132.178,-68.3611 "/>
<polyline fill="none" stroke="black" points="-254.737,-44.3611 -132.178,-44.3611 "/>
<text text-anchor="start" x="-246.737" y="-29.1611" font-family="Times,serif" font-size="14.00">_layout</text>
</g>
<!-- ApplicationController&#45;&gt;FindingsController -->
<g id="edge3" class="edge"><title>ApplicationController&#45;&gt;FindingsController</title>
<path fill="none" stroke="black" d="M-94.3982,-24.1413C-107.264,-30.664 -120.13,-37.1867 -132.128,-43.2692"/>
</g>
<!-- PointsController -->
<g id="node6" class="node"><title>PointsController</title>
<path fill="none" stroke="black" d="M97.216,-116.781C97.216,-116.781 206.603,-116.781 206.603,-116.781 212.603,-116.781 218.603,-122.781 218.603,-128.781 218.603,-128.781 218.603,-348.781 218.603,-348.781 218.603,-354.781 212.603,-360.781 206.603,-360.781 206.603,-360.781 97.216,-360.781 97.216,-360.781 91.216,-360.781 85.216,-354.781 85.216,-348.781 85.216,-348.781 85.216,-128.781 85.216,-128.781 85.216,-122.781 91.216,-116.781 97.216,-116.781"/>
<text text-anchor="middle" x="151.909" y="-345.581" font-family="Times,serif" font-size="14.00">PointsController</text>
<polyline fill="none" stroke="black" points="85.216,-338.781 218.603,-338.781 "/>
<text text-anchor="start" x="93.216" y="-323.581" font-family="Times,serif" font-size="14.00">create</text>
<text text-anchor="start" x="93.216" y="-309.581" font-family="Times,serif" font-size="14.00">edit</text>
<text text-anchor="start" x="93.216" y="-295.581" font-family="Times,serif" font-size="14.00">important</text>
<text text-anchor="start" x="93.216" y="-281.581" font-family="Times,serif" font-size="14.00">index</text>
<text text-anchor="start" x="93.216" y="-267.581" font-family="Times,serif" font-size="14.00">new</text>
<text text-anchor="start" x="93.216" y="-253.581" font-family="Times,serif" font-size="14.00">search</text>
<text text-anchor="start" x="93.216" y="-239.581" font-family="Times,serif" font-size="14.00">unimportant</text>
<text text-anchor="start" x="93.216" y="-225.581" font-family="Times,serif" font-size="14.00">update</text>
<polyline fill="none" stroke="black" points="85.216,-218.781 218.603,-218.781 "/>
<polyline fill="none" stroke="black" points="85.216,-194.781 218.603,-194.781 "/>
<text text-anchor="start" x="93.216" y="-179.581" font-family="Times,serif" font-size="14.00">_layout</text>
<text text-anchor="start" x="93.216" y="-165.581" font-family="Times,serif" font-size="14.00">findings_attributes</text>
<text text-anchor="start" x="93.216" y="-151.581" font-family="Times,serif" font-size="14.00">point_params</text>
<text text-anchor="start" x="93.216" y="-137.581" font-family="Times,serif" font-size="14.00">research_params</text>
<text text-anchor="start" x="93.216" y="-123.581" font-family="Times,serif" font-size="14.00">researches_attributes</text>
</g>
<!-- ApplicationController&#45;&gt;PointsController -->
<g id="edge4" class="edge"><title>ApplicationController&#45;&gt;PointsController</title>
<path fill="none" stroke="black" d="M33.0519,-24.9893C47.9277,-51.7467 66.8258,-85.7393 85.1516,-118.702"/>
</g>
<!-- ResearchesController -->
<g id="node7" class="node"><title>ResearchesController</title>
<path fill="none" stroke="black" d="M-193.062,-137.366C-193.062,-137.366 -80.5515,-137.366 -80.5515,-137.366 -74.5515,-137.366 -68.5515,-143.366 -68.5515,-149.366 -68.5515,-149.366 -68.5515,-383.366 -68.5515,-383.366 -68.5515,-389.366 -74.5515,-395.366 -80.5515,-395.366 -80.5515,-395.366 -193.062,-395.366 -193.062,-395.366 -199.062,-395.366 -205.062,-389.366 -205.062,-383.366 -205.062,-383.366 -205.062,-149.366 -205.062,-149.366 -205.062,-143.366 -199.062,-137.366 -193.062,-137.366"/>
<text text-anchor="middle" x="-136.807" y="-380.166" font-family="Times,serif" font-size="14.00">ResearchesController</text>
<polyline fill="none" stroke="black" points="-205.062,-373.366 -68.5515,-373.366 "/>
<text text-anchor="start" x="-197.062" y="-358.166" font-family="Times,serif" font-size="14.00">create</text>
<text text-anchor="start" x="-197.062" y="-344.166" font-family="Times,serif" font-size="14.00">destroy</text>
<text text-anchor="start" x="-197.062" y="-330.166" font-family="Times,serif" font-size="14.00">edit</text>
<text text-anchor="start" x="-197.062" y="-316.166" font-family="Times,serif" font-size="14.00">index</text>
<text text-anchor="start" x="-197.062" y="-302.166" font-family="Times,serif" font-size="14.00">new</text>
<text text-anchor="start" x="-197.062" y="-288.166" font-family="Times,serif" font-size="14.00">pubmed_search</text>
<text text-anchor="start" x="-197.062" y="-274.166" font-family="Times,serif" font-size="14.00">search</text>
<text text-anchor="start" x="-197.062" y="-260.166" font-family="Times,serif" font-size="14.00">show</text>
<text text-anchor="start" x="-197.062" y="-246.166" font-family="Times,serif" font-size="14.00">update</text>
<text text-anchor="start" x="-197.062" y="-232.166" font-family="Times,serif" font-size="14.00">view_result</text>
<polyline fill="none" stroke="black" points="-205.062,-225.366 -68.5515,-225.366 "/>
<polyline fill="none" stroke="black" points="-205.062,-201.366 -68.5515,-201.366 "/>
<text text-anchor="start" x="-197.062" y="-186.166" font-family="Times,serif" font-size="14.00">_layout</text>
<text text-anchor="start" x="-197.062" y="-172.166" font-family="Times,serif" font-size="14.00">findings_attributes</text>
<text text-anchor="start" x="-197.062" y="-158.166" font-family="Times,serif" font-size="14.00">research_params</text>
<text text-anchor="start" x="-197.062" y="-144.166" font-family="Times,serif" font-size="14.00">researches_attributes</text>
</g>
<!-- ApplicationController&#45;&gt;ResearchesController -->
<g id="edge5" class="edge"><title>ApplicationController&#45;&gt;ResearchesController</title>
<path fill="none" stroke="black" d="M-20.1428,-25.1961C-35.1989,-56.3204 -55.1464,-97.5562 -74.2817,-137.113"/>
</g>
<!-- StaticPagesController -->
<g id="node8" class="node"><title>StaticPagesController</title>
<path fill="none" stroke="black" d="M-252.9,189.231C-252.9,189.231 -138.81,189.231 -138.81,189.231 -132.81,189.231 -126.81,183.231 -126.81,177.231 -126.81,177.231 -126.81,83.2312 -126.81,83.2312 -126.81,77.2312 -132.81,71.2312 -138.81,71.2312 -138.81,71.2312 -252.9,71.2312 -252.9,71.2312 -258.9,71.2312 -264.9,77.2312 -264.9,83.2312 -264.9,83.2312 -264.9,177.231 -264.9,177.231 -264.9,183.231 -258.9,189.231 -252.9,189.231"/>
<text text-anchor="middle" x="-195.855" y="86.4312" font-family="Times,serif" font-size="14.00">StaticPagesController</text>
<polyline fill="none" stroke="black" points="-264.9,93.2312 -126.81,93.2312 "/>
<text text-anchor="start" x="-256.9" y="108.431" font-family="Times,serif" font-size="14.00">contact</text>
<text text-anchor="start" x="-256.9" y="122.431" font-family="Times,serif" font-size="14.00">help</text>
<text text-anchor="start" x="-256.9" y="136.431" font-family="Times,serif" font-size="14.00">home</text>
<polyline fill="none" stroke="black" points="-264.9,143.231 -126.81,143.231 "/>
<polyline fill="none" stroke="black" points="-264.9,167.231 -126.81,167.231 "/>
<text text-anchor="start" x="-256.9" y="182.431" font-family="Times,serif" font-size="14.00">_layout</text>
</g>
<!-- ApplicationController&#45;&gt;StaticPagesController -->
<g id="edge6" class="edge"><title>ApplicationController&#45;&gt;StaticPagesController</title>
<path fill="none" stroke="black" d="M-93.5412,77.0869C-104.754,82.9111 -116.001,88.7531 -126.721,94.3214"/>
</g>
<!-- VerdictsController -->
<g id="node9" class="node"><title>VerdictsController</title>
<path fill="none" stroke="black" d="M106.919,335.6C106.919,335.6 202.34,335.6 202.34,335.6 208.34,335.6 214.34,329.6 214.34,323.6 214.34,323.6 214.34,243.6 214.34,243.6 214.34,237.6 208.34,231.6 202.34,231.6 202.34,231.6 106.919,231.6 106.919,231.6 100.919,231.6 94.9194,237.6 94.9194,243.6 94.9194,243.6 94.9194,323.6 94.9194,323.6 94.9194,329.6 100.919,335.6 106.919,335.6"/>
<text text-anchor="middle" x="154.63" y="246.8" font-family="Times,serif" font-size="14.00">VerdictsController</text>
<polyline fill="none" stroke="black" points="94.9194,253.6 214.34,253.6 "/>
<text text-anchor="start" x="102.919" y="268.8" font-family="Times,serif" font-size="14.00">bump</text>
<text text-anchor="start" x="102.919" y="282.8" font-family="Times,serif" font-size="14.00">unbump</text>
<polyline fill="none" stroke="black" points="94.9194,289.6 214.34,289.6 "/>
<polyline fill="none" stroke="black" points="94.9194,313.6 214.34,313.6 "/>
<text text-anchor="start" x="102.919" y="328.8" font-family="Times,serif" font-size="14.00">_layout</text>
</g>
<!-- ApplicationController&#45;&gt;VerdictsController -->
<g id="edge7" class="edge"><title>ApplicationController&#45;&gt;VerdictsController</title>
<path fill="none" stroke="black" d="M34.4693,77.2642C60.4372,121.855 97.9295,186.236 124.106,231.186"/>
</g>
</g>
</svg>
