<?xml version="1.0" encoding="UTF-8" standalone="no"?>
<!DOCTYPE svg PUBLIC "-//W3C//DTD SVG 1.1//EN"
 "http://www.w3.org/Graphics/SVG/1.1/DTD/svg11.dtd">
<!-- Generated by graphviz version 2.38.0 (20140413.2041)
 -->
<!-- Title: models_diagram Pages: 1 -->
<svg width="615pt" height="1150pt"
 viewBox="0.00 0.00 615.13 1150.00" xmlns="http://www.w3.org/2000/svg" xmlns:xlink="http://www.w3.org/1999/xlink">
<g id="graph0" class="graph" transform="scale(1 1) rotate(0) translate(4 1146)">
<title>models_diagram</title>
<polygon fill="white" stroke="none" points="-4,4 -4,-1146 611.13,-1146 611.13,4 -4,4"/>
<!-- Association -->
<g id="node1" class="node"><title>Association</title>
<path fill="none" stroke="black" d="M91.7491,-0.5C91.7491,-0.5 200.76,-0.5 200.76,-0.5 206.76,-0.5 212.76,-6.5 212.76,-12.5 212.76,-12.5 212.76,-88.5 212.76,-88.5 212.76,-94.5 206.76,-100.5 200.76,-100.5 200.76,-100.5 91.7491,-100.5 91.7491,-100.5 85.7491,-100.5 79.7491,-94.5 79.7491,-88.5 79.7491,-88.5 79.7491,-12.5 79.7491,-12.5 79.7491,-6.5 85.7491,-0.5 91.7491,-0.5"/>
<text text-anchor="middle" x="146.254" y="-85.3" font-family="Times,serif" font-size="14.00">Association</text>
<polyline fill="none" stroke="black" points="79.7491,-78.5 212.76,-78.5 "/>
<text text-anchor="start" x="87.7491" y="-63.3" font-family="Times,serif" font-size="14.00">id :integer</text>
<text text-anchor="start" x="87.7491" y="-49.3" font-family="Times,serif" font-size="14.00">point_id :integer</text>
<text text-anchor="start" x="87.7491" y="-35.3" font-family="Times,serif" font-size="14.00">finding_id :integer</text>
<text text-anchor="start" x="87.7491" y="-21.3" font-family="Times,serif" font-size="14.00">created_at :datetime</text>
<text text-anchor="start" x="87.7491" y="-7.3" font-family="Times,serif" font-size="14.00">updated_at :datetime</text>
</g>
<!-- Debate -->
<g id="node2" class="node"><title>Debate</title>
<path fill="none" stroke="black" d="M425.48,-345.5C425.48,-345.5 571.029,-345.5 571.029,-345.5 577.029,-345.5 583.029,-351.5 583.029,-357.5 583.029,-357.5 583.029,-475.5 583.029,-475.5 583.029,-481.5 577.029,-487.5 571.029,-487.5 571.029,-487.5 425.48,-487.5 425.48,-487.5 419.48,-487.5 413.48,-481.5 413.48,-475.5 413.48,-475.5 413.48,-357.5 413.48,-357.5 413.48,-351.5 419.48,-345.5 425.48,-345.5"/>
<text text-anchor="middle" x="498.254" y="-472.3" font-family="Times,serif" font-size="14.00">Debate</text>
<polyline fill="none" stroke="black" points="413.48,-465.5 583.029,-465.5 "/>
<text text-anchor="start" x="421.48" y="-450.3" font-family="Times,serif" font-size="14.00">id :integer</text>
<text text-anchor="start" x="421.48" y="-436.3" font-family="Times,serif" font-size="14.00">title :string</text>
<text text-anchor="start" x="421.48" y="-422.3" font-family="Times,serif" font-size="14.00">description :text</text>
<text text-anchor="start" x="421.48" y="-408.3" font-family="Times,serif" font-size="14.00">notes :text</text>
<text text-anchor="start" x="421.48" y="-394.3" font-family="Times,serif" font-size="14.00">created_at :datetime</text>
<text text-anchor="start" x="421.48" y="-380.3" font-family="Times,serif" font-size="14.00">updated_at :datetime</text>
<text text-anchor="start" x="421.48" y="-366.3" font-family="Times,serif" font-size="14.00">cached_votes_total :integer</text>
<text text-anchor="start" x="421.48" y="-352.3" font-family="Times,serif" font-size="14.00">user_create_id :integer</text>
</g>
<!-- Point -->
<g id="node4" class="node"><title>Point</title>
<path fill="none" stroke="black" d="M141.48,-151.5C141.48,-151.5 287.029,-151.5 287.029,-151.5 293.029,-151.5 299.029,-157.5 299.029,-163.5 299.029,-163.5 299.029,-295.5 299.029,-295.5 299.029,-301.5 293.029,-307.5 287.029,-307.5 287.029,-307.5 141.48,-307.5 141.48,-307.5 135.48,-307.5 129.48,-301.5 129.48,-295.5 129.48,-295.5 129.48,-163.5 129.48,-163.5 129.48,-157.5 135.48,-151.5 141.48,-151.5"/>
<text text-anchor="middle" x="214.254" y="-292.3" font-family="Times,serif" font-size="14.00">Point</text>
<polyline fill="none" stroke="black" points="129.48,-285.5 299.029,-285.5 "/>
<text text-anchor="start" x="137.48" y="-270.3" font-family="Times,serif" font-size="14.00">id :integer</text>
<text text-anchor="start" x="137.48" y="-256.3" font-family="Times,serif" font-size="14.00">point :text</text>
<text text-anchor="start" x="137.48" y="-242.3" font-family="Times,serif" font-size="14.00">for_against :boolean</text>
<text text-anchor="start" x="137.48" y="-228.3" font-family="Times,serif" font-size="14.00">debate_id :integer</text>
<text text-anchor="start" x="137.48" y="-214.3" font-family="Times,serif" font-size="14.00">finding_id :integer</text>
<text text-anchor="start" x="137.48" y="-200.3" font-family="Times,serif" font-size="14.00">created_at :datetime</text>
<text text-anchor="start" x="137.48" y="-186.3" font-family="Times,serif" font-size="14.00">updated_at :datetime</text>
<text text-anchor="start" x="137.48" y="-172.3" font-family="Times,serif" font-size="14.00">cached_votes_total :integer</text>
<text text-anchor="start" x="137.48" y="-158.3" font-family="Times,serif" font-size="14.00">user_create_id :integer</text>
</g>
<!-- Debate&#45;&gt;Point -->
<g id="edge1" class="edge"><title>Debate&#45;&gt;Point</title>
<path fill="none" stroke="#7cab1b" d="M406.59,-355.789C374.906,-335.15 339.382,-312.009 307.567,-291.285"/>
<ellipse fill="none" stroke="#7cab1b" cx="410.078" cy="-358.061" rx="4.00002" ry="4.00002"/>
<polygon fill="#7cab1b" stroke="#7cab1b" points="307.511,-291.248 301.589,-282.02 303.322,-288.519 299.132,-285.79 299.132,-285.79 299.132,-285.79 303.322,-288.519 296.676,-289.561 307.511,-291.248 307.511,-291.248"/>
</g>
<!-- Verdict -->
<g id="node7" class="node"><title>Verdict</title>
<path fill="none" stroke="black" d="M367.48,-165.5C367.48,-165.5 513.029,-165.5 513.029,-165.5 519.029,-165.5 525.029,-171.5 525.029,-177.5 525.029,-177.5 525.029,-281.5 525.029,-281.5 525.029,-287.5 519.029,-293.5 513.029,-293.5 513.029,-293.5 367.48,-293.5 367.48,-293.5 361.48,-293.5 355.48,-287.5 355.48,-281.5 355.48,-281.5 355.48,-177.5 355.48,-177.5 355.48,-171.5 361.48,-165.5 367.48,-165.5"/>
<text text-anchor="middle" x="440.254" y="-278.3" font-family="Times,serif" font-size="14.00">Verdict</text>
<polyline fill="none" stroke="black" points="355.48,-271.5 525.029,-271.5 "/>
<text text-anchor="start" x="363.48" y="-256.3" font-family="Times,serif" font-size="14.00">id :integer</text>
<text text-anchor="start" x="363.48" y="-242.3" font-family="Times,serif" font-size="14.00">verdict :text</text>
<text text-anchor="start" x="363.48" y="-228.3" font-family="Times,serif" font-size="14.00">debate_id :integer</text>
<text text-anchor="start" x="363.48" y="-214.3" font-family="Times,serif" font-size="14.00">cached_votes_total :integer</text>
<text text-anchor="start" x="363.48" y="-200.3" font-family="Times,serif" font-size="14.00">created_at :datetime</text>
<text text-anchor="start" x="363.48" y="-186.3" font-family="Times,serif" font-size="14.00">updated_at :datetime</text>
<text text-anchor="start" x="363.48" y="-172.3" font-family="Times,serif" font-size="14.00">user_create_id :integer</text>
</g>
<!-- Debate&#45;&gt;Verdict -->
<g id="edge2" class="edge"><title>Debate&#45;&gt;Verdict</title>
<path fill="none" stroke="#215919" d="M473.729,-337.273C470.202,-326.023 466.584,-314.483 463.092,-303.343"/>
<ellipse fill="none" stroke="#215919" cx="475.048" cy="-341.479" rx="4.00001" ry="4.00001"/>
<polygon fill="#215919" stroke="#215919" points="463.051,-303.214 464.354,-292.326 461.556,-298.443 460.06,-293.672 460.06,-293.672 460.06,-293.672 461.556,-298.443 455.766,-295.019 463.051,-303.214 463.051,-303.214"/>
</g>
<!-- ActsAsVotable::Vote -->
<g id="node8" class="node"><title>ActsAsVotable::Vote</title>
<ellipse fill="none" stroke="black" cx="338.254" cy="-50.5" rx="83.9272" ry="18"/>
<text text-anchor="middle" x="338.254" y="-46.3" font-family="Times,serif" font-size="14.00">ActsAsVotable::Vote</text>
</g>
<!-- Debate&#45;&gt;ActsAsVotable::Vote -->
<g id="edge3" class="edge"><title>Debate&#45;&gt;ActsAsVotable::Vote</title>
<path fill="none" stroke="#5b20ec" d="M533.967,-337.742C553.924,-281.897 568.581,-206.923 534.254,-151 506.449,-105.702 450.883,-80.2412 405.993,-66.441"/>
<ellipse fill="none" stroke="#5b20ec" cx="532.5" cy="-341.736" rx="4.00001" ry="4.00001"/>
<polygon fill="#5b20ec" stroke="#5b20ec" points="405.893,-66.4115 397.57,-59.2714 401.096,-64.9999 396.299,-63.5883 396.299,-63.5883 396.299,-63.5883 401.096,-64.9999 395.029,-67.9053 405.893,-66.4115 405.893,-66.4115"/>
<text text-anchor="middle" x="580.692" y="-225.3" font-family="Times,serif" font-size="14.00">votes_for</text>
</g>
<!-- Finding -->
<g id="node3" class="node"><title>Finding</title>
<path fill="none" stroke="black" d="M133.749,-352.5C133.749,-352.5 242.76,-352.5 242.76,-352.5 248.76,-352.5 254.76,-358.5 254.76,-364.5 254.76,-364.5 254.76,-468.5 254.76,-468.5 254.76,-474.5 248.76,-480.5 242.76,-480.5 242.76,-480.5 133.749,-480.5 133.749,-480.5 127.749,-480.5 121.749,-474.5 121.749,-468.5 121.749,-468.5 121.749,-364.5 121.749,-364.5 121.749,-358.5 127.749,-352.5 133.749,-352.5"/>
<text text-anchor="middle" x="188.254" y="-465.3" font-family="Times,serif" font-size="14.00">Finding</text>
<polyline fill="none" stroke="black" points="121.749,-458.5 254.76,-458.5 "/>
<text text-anchor="start" x="129.749" y="-443.3" font-family="Times,serif" font-size="14.00">id :integer</text>
<text text-anchor="start" x="129.749" y="-429.3" font-family="Times,serif" font-size="14.00">finding :text</text>
<text text-anchor="start" x="129.749" y="-415.3" font-family="Times,serif" font-size="14.00">research_id :integer</text>
<text text-anchor="start" x="129.749" y="-401.3" font-family="Times,serif" font-size="14.00">created_at :datetime</text>
<text text-anchor="start" x="129.749" y="-387.3" font-family="Times,serif" font-size="14.00">updated_at :datetime</text>
<text text-anchor="start" x="129.749" y="-373.3" font-family="Times,serif" font-size="14.00">sample_def :text</text>
<text text-anchor="start" x="129.749" y="-359.3" font-family="Times,serif" font-size="14.00">quote :text</text>
</g>
<!-- Finding&#45;&gt;Association -->
<g id="edge4" class="edge"><title>Finding&#45;&gt;Association</title>
<path fill="none" stroke="#6e8ea8" d="M136.255,-345.44C129.672,-333.472 123.953,-320.767 120.254,-308 101.181,-242.167 114.228,-163.315 127.794,-110.575"/>
<ellipse fill="none" stroke="#6e8ea8" cx="138.241" cy="-348.921" rx="4.00002" ry="4.00002"/>
<polygon fill="#6e8ea8" stroke="#6e8ea8" points="127.847,-110.378 134.764,-101.87 129.131,-105.546 130.415,-100.714 130.415,-100.714 130.415,-100.714 129.131,-105.546 126.066,-99.5581 127.847,-110.378 127.847,-110.378"/>
</g>
<!-- Finding&#45;&gt;Point -->
<g id="edge5" class="edge"><title>Finding&#45;&gt;Point</title>
<path fill="none" stroke="#b1a4f6" d="M198.568,-342.115C199.696,-334.089 200.852,-325.863 202.001,-317.691"/>
<polygon fill="#b1a4f6" stroke="#b1a4f6" points="198.521,-342.448 192.673,-351.725 197.825,-347.4 197.129,-352.351 197.129,-352.351 197.129,-352.351 197.825,-347.4 201.586,-352.977 198.521,-342.448 198.521,-342.448"/>
<polygon fill="#b1a4f6" stroke="#b1a4f6" points="202.003,-317.671 207.851,-308.395 202.699,-312.72 203.395,-307.769 203.395,-307.769 203.395,-307.769 202.699,-312.72 198.939,-307.142 202.003,-317.671 202.003,-317.671"/>
</g>
<!-- Point&#45;&gt;Association -->
<g id="edge6" class="edge"><title>Point&#45;&gt;Association</title>
<path fill="none" stroke="#f40a78" d="M181.666,-143.675C177.321,-132.364 172.944,-120.972 168.822,-110.241"/>
<ellipse fill="none" stroke="#f40a78" cx="183.192" cy="-147.646" rx="4.00001" ry="4.00001"/>
<polygon fill="#f40a78" stroke="#f40a78" points="168.701,-109.928 169.316,-98.9793 166.908,-105.261 165.115,-100.593 165.115,-100.593 165.115,-100.593 166.908,-105.261 160.914,-102.207 168.701,-109.928 168.701,-109.928"/>
</g>
<!-- Point&#45;&gt;ActsAsVotable::Vote -->
<g id="edge7" class="edge"><title>Point&#45;&gt;ActsAsVotable::Vote</title>
<path fill="none" stroke="#959551" d="M245.169,-143.894C249.726,-135.171 254.795,-126.696 260.378,-119 272.879,-101.771 290.579,-85.9778 305.947,-74.0066"/>
<ellipse fill="none" stroke="#959551" cx="243.258" cy="-147.695" rx="4.00002" ry="4.00002"/>
<polygon fill="#959551" stroke="#959551" points="306.222,-73.7983 316.912,-71.3528 310.21,-70.7813 314.197,-67.7643 314.197,-67.7643 314.197,-67.7643 310.21,-70.7813 311.482,-64.1758 306.222,-73.7983 306.222,-73.7983"/>
<text text-anchor="middle" x="287.692" y="-121.8" font-family="Times,serif" font-size="14.00">votes_for</text>
</g>
<!-- Research -->
<g id="node5" class="node"><title>Research</title>
<path fill="none" stroke="black" d="M89.4214,-525.5C89.4214,-525.5 287.087,-525.5 287.087,-525.5 293.087,-525.5 299.087,-531.5 299.087,-537.5 299.087,-537.5 299.087,-865.5 299.087,-865.5 299.087,-871.5 293.087,-877.5 287.087,-877.5 287.087,-877.5 89.4214,-877.5 89.4214,-877.5 83.4214,-877.5 77.4214,-871.5 77.4214,-865.5 77.4214,-865.5 77.4214,-537.5 77.4214,-537.5 77.4214,-531.5 83.4214,-525.5 89.4214,-525.5"/>
<text text-anchor="middle" x="188.254" y="-862.3" font-family="Times,serif" font-size="14.00">Research</text>
<polyline fill="none" stroke="black" points="77.4214,-855.5 299.087,-855.5 "/>
<text text-anchor="start" x="85.4214" y="-840.3" font-family="Times,serif" font-size="14.00">id :integer</text>
<text text-anchor="start" x="85.4214" y="-826.3" font-family="Times,serif" font-size="14.00">study_type :string</text>
<text text-anchor="start" x="85.4214" y="-812.3" font-family="Times,serif" font-size="14.00">authors :string</text>
<text text-anchor="start" x="85.4214" y="-798.3" font-family="Times,serif" font-size="14.00">title :text</text>
<text text-anchor="start" x="85.4214" y="-784.3" font-family="Times,serif" font-size="14.00">journal :string</text>
<text text-anchor="start" x="85.4214" y="-770.3" font-family="Times,serif" font-size="14.00">date_of_publication :date</text>
<text text-anchor="start" x="85.4214" y="-756.3" font-family="Times,serif" font-size="14.00">dropouts :text</text>
<text text-anchor="start" x="85.4214" y="-742.3" font-family="Times,serif" font-size="14.00">retracted :boolean</text>
<text text-anchor="start" x="85.4214" y="-728.3" font-family="Times,serif" font-size="14.00">peer_reviewed :boolean</text>
<text text-anchor="start" x="85.4214" y="-714.3" font-family="Times,serif" font-size="14.00">replicated :boolean</text>
<text text-anchor="start" x="85.4214" y="-700.3" font-family="Times,serif" font-size="14.00">version :string</text>
<text text-anchor="start" x="85.4214" y="-686.3" font-family="Times,serif" font-size="14.00">funding :text</text>
<text text-anchor="start" x="85.4214" y="-672.3" font-family="Times,serif" font-size="14.00">funding_bias :float</text>
<text text-anchor="start" x="85.4214" y="-658.3" font-family="Times,serif" font-size="14.00">link :string</text>
<text text-anchor="start" x="85.4214" y="-644.3" font-family="Times,serif" font-size="14.00">created_at :datetime</text>
<text text-anchor="start" x="85.4214" y="-630.3" font-family="Times,serif" font-size="14.00">updated_at :datetime</text>
<text text-anchor="start" x="85.4214" y="-616.3" font-family="Times,serif" font-size="14.00">single_blinded :boolean</text>
<text text-anchor="start" x="85.4214" y="-602.3" font-family="Times,serif" font-size="14.00">double_blinded :boolean</text>
<text text-anchor="start" x="85.4214" y="-588.3" font-family="Times,serif" font-size="14.00">randomized :boolean</text>
<text text-anchor="start" x="85.4214" y="-574.3" font-family="Times,serif" font-size="14.00">controlled_against_placebo :boolean</text>
<text text-anchor="start" x="85.4214" y="-560.3" font-family="Times,serif" font-size="14.00">controlled_against_best_alt :boolean</text>
<text text-anchor="start" x="85.4214" y="-546.3" font-family="Times,serif" font-size="14.00">score :float</text>
<text text-anchor="start" x="85.4214" y="-532.3" font-family="Times,serif" font-size="14.00">user_create_id :integer</text>
</g>
<!-- Research&#45;&gt;Finding -->
<g id="edge8" class="edge"><title>Research&#45;&gt;Finding</title>
<path fill="none" stroke="#a35bb7" d="M188.254,-517.25C188.254,-508.13 188.254,-499.264 188.254,-490.824"/>
<ellipse fill="none" stroke="#a35bb7" cx="188.254" cy="-521.297" rx="4" ry="4"/>
<polygon fill="#a35bb7" stroke="#a35bb7" points="188.255,-490.751 192.754,-480.751 188.254,-485.751 188.254,-480.751 188.254,-480.751 188.254,-480.751 188.254,-485.751 183.754,-480.751 188.255,-490.751 188.255,-490.751"/>
</g>
<!-- User -->
<g id="node6" class="node"><title>User</title>
<path fill="none" stroke="black" d="M236.977,-915.5C236.977,-915.5 417.532,-915.5 417.532,-915.5 423.532,-915.5 429.532,-921.5 429.532,-927.5 429.532,-927.5 429.532,-1129.5 429.532,-1129.5 429.532,-1135.5 423.532,-1141.5 417.532,-1141.5 417.532,-1141.5 236.977,-1141.5 236.977,-1141.5 230.977,-1141.5 224.977,-1135.5 224.977,-1129.5 224.977,-1129.5 224.977,-927.5 224.977,-927.5 224.977,-921.5 230.977,-915.5 236.977,-915.5"/>
<text text-anchor="middle" x="327.254" y="-1126.3" font-family="Times,serif" font-size="14.00">User</text>
<polyline fill="none" stroke="black" points="224.977,-1119.5 429.532,-1119.5 "/>
<text text-anchor="start" x="232.977" y="-1104.3" font-family="Times,serif" font-size="14.00">id :integer</text>
<text text-anchor="start" x="232.977" y="-1090.3" font-family="Times,serif" font-size="14.00">email :string</text>
<text text-anchor="start" x="232.977" y="-1076.3" font-family="Times,serif" font-size="14.00">encrypted_password :string</text>
<text text-anchor="start" x="232.977" y="-1062.3" font-family="Times,serif" font-size="14.00">reset_password_token :string</text>
<text text-anchor="start" x="232.977" y="-1048.3" font-family="Times,serif" font-size="14.00">reset_password_sent_at :datetime</text>
<text text-anchor="start" x="232.977" y="-1034.3" font-family="Times,serif" font-size="14.00">remember_created_at :datetime</text>
<text text-anchor="start" x="232.977" y="-1020.3" font-family="Times,serif" font-size="14.00">sign_in_count :integer</text>
<text text-anchor="start" x="232.977" y="-1006.3" font-family="Times,serif" font-size="14.00">current_sign_in_at :datetime</text>
<text text-anchor="start" x="232.977" y="-992.3" font-family="Times,serif" font-size="14.00">last_sign_in_at :datetime</text>
<text text-anchor="start" x="232.977" y="-978.3" font-family="Times,serif" font-size="14.00">current_sign_in_ip :string</text>
<text text-anchor="start" x="232.977" y="-964.3" font-family="Times,serif" font-size="14.00">last_sign_in_ip :string</text>
<text text-anchor="start" x="232.977" y="-950.3" font-family="Times,serif" font-size="14.00">created_at :datetime</text>
<text text-anchor="start" x="232.977" y="-936.3" font-family="Times,serif" font-size="14.00">updated_at :datetime</text>
<text text-anchor="start" x="232.977" y="-922.3" font-family="Times,serif" font-size="14.00">username :string</text>
</g>
<!-- User&#45;&gt;Debate -->
<g id="edge11" class="edge"><title>User&#45;&gt;Debate</title>
<path fill="none" stroke="#e2208b" d="M395.013,-907.857C396.505,-904.227 397.923,-900.603 399.254,-897 449.327,-761.463 476.552,-594.509 489.194,-497.618"/>
<ellipse fill="none" stroke="#e2208b" cx="393.414" cy="-911.63" rx="4.00002" ry="4.00002"/>
<polygon fill="#e2208b" stroke="#e2208b" points="489.207,-497.517 494.945,-488.173 489.844,-492.558 490.482,-487.599 490.482,-487.599 490.482,-487.599 489.844,-492.558 486.019,-487.025 489.207,-497.517 489.207,-497.517"/>
</g>
<!-- User&#45;&gt;Point -->
<g id="edge12" class="edge"><title>User&#45;&gt;Point</title>
<path fill="none" stroke="#098095" d="M216.939,-993.538C161.903,-970.381 100.364,-933.61 68.2544,-878 -50.603,-672.156 1.70543,-555.423 112.254,-345 117.474,-335.066 123.739,-325.299 130.566,-315.913"/>
<ellipse fill="none" stroke="#098095" cx="220.959" cy="-995.193" rx="4.00001" ry="4.00001"/>
<polygon fill="#098095" stroke="#098095" points="130.682,-315.758 140.292,-310.475 133.69,-311.763 136.697,-307.768 136.697,-307.768 136.697,-307.768 133.69,-311.763 133.102,-305.062 130.682,-315.758 130.682,-315.758"/>
</g>
<!-- User&#45;&gt;Research -->
<g id="edge13" class="edge"><title>User&#45;&gt;Research</title>
<path fill="none" stroke="#9f261e" d="M276.023,-907.714C273.127,-900.944 270.186,-894.067 267.221,-887.135"/>
<ellipse fill="none" stroke="#9f261e" cx="277.651" cy="-911.521" rx="4.00002" ry="4.00002"/>
<polygon fill="#9f261e" stroke="#9f261e" points="267.099,-886.848 267.304,-875.884 265.132,-882.251 263.166,-877.653 263.166,-877.653 263.166,-877.653 265.132,-882.251 259.029,-879.423 267.099,-886.848 267.099,-886.848"/>
</g>
<!-- User&#45;&gt;Verdict -->
<g id="edge10" class="edge"><title>User&#45;&gt;Verdict</title>
<path fill="none" stroke="#ae1933" d="M340.227,-907.138C360.638,-718.566 398.529,-372.063 404.254,-345 407.135,-331.384 410.963,-317.079 415.048,-303.372"/>
<ellipse fill="none" stroke="#ae1933" cx="339.789" cy="-911.188" rx="4.00001" ry="4.00001"/>
<polygon fill="#ae1933" stroke="#ae1933" points="415.137,-303.078 422.362,-294.829 416.598,-298.296 418.058,-293.514 418.058,-293.514 418.058,-293.514 416.598,-298.296 413.754,-292.2 415.137,-303.078 415.137,-303.078"/>
</g>
<!-- User&#45;&gt;ActsAsVotable::Vote -->
<g id="edge9" class="edge"><title>User&#45;&gt;ActsAsVotable::Vote</title>
<path fill="none" stroke="#72606d" d="M327.254,-907.277C327.254,-845.987 327.254,-770.269 327.254,-702.5 327.254,-702.5 327.254,-702.5 327.254,-228.5 327.254,-175.437 332.24,-113.597 335.498,-78.8492"/>
<ellipse fill="none" stroke="#72606d" cx="327.254" cy="-911.443" rx="4" ry="4"/>
<polygon fill="#72606d" stroke="#72606d" points="335.53,-78.5189 340.966,-68.9954 336.009,-73.5418 336.487,-68.5647 336.487,-68.5647 336.487,-68.5647 336.009,-73.5418 332.008,-68.1341 335.53,-78.5189 335.53,-78.5189"/>
<text text-anchor="middle" x="342.03" y="-412.3" font-family="Times,serif" font-size="14.00">votes</text>
</g>
<!-- Verdict&#45;&gt;ActsAsVotable::Vote -->
<g id="edge14" class="edge"><title>Verdict&#45;&gt;ActsAsVotable::Vote</title>
<path fill="none" stroke="#31e1f1" d="M399.504,-157.786C383.179,-129.458 365.393,-98.5937 353.215,-77.4602"/>
<ellipse fill="none" stroke="#31e1f1" cx="401.721" cy="-161.633" rx="4.00002" ry="4.00002"/>
<polygon fill="#31e1f1" stroke="#31e1f1" points="353.192,-77.4215 352.098,-66.5103 350.696,-73.0893 348.199,-68.7571 348.199,-68.7571 348.199,-68.7571 350.696,-73.0893 344.3,-71.004 353.192,-77.4215 353.192,-77.4215"/>
<text text-anchor="middle" x="409.692" y="-121.8" font-family="Times,serif" font-size="14.00">votes_for</text>
</g>
</g>
</svg>
