<?xml version="1.0" encoding="UTF-8" standalone="no"?>
<!DOCTYPE svg PUBLIC "-//W3C//DTD SVG 1.1//EN"
 "http://www.w3.org/Graphics/SVG/1.1/DTD/svg11.dtd">
<!-- Generated by graphviz version 2.38.0 (20140413.2041)
 -->
<!-- Title: models_diagram Pages: 1 -->
<svg width="591pt" height="472pt"
 viewBox="0.00 0.00 591.36 472.00" xmlns="http://www.w3.org/2000/svg" xmlns:xlink="http://www.w3.org/1999/xlink">
<g id="graph0" class="graph" transform="scale(1 1) rotate(0) translate(4 468)">
<title>models_diagram</title>
<polygon fill="white" stroke="none" points="-4,4 -4,-468 587.364,-468 587.364,4 -4,4"/>
<!-- _diagram_info -->
<g id="node1" class="node"><title>_diagram_info</title>
<text text-anchor="start" x="8" y="-449.6" font-family="Times,serif" font-size="13.00">Models diagram</text>
<text text-anchor="start" x="8" y="-436.6" font-family="Times,serif" font-size="13.00">Date: Aug 26 2014 &#45; 15:26</text>
<text text-anchor="start" x="8" y="-423.6" font-family="Times,serif" font-size="13.00">Migration version: 0</text>
<text text-anchor="start" x="8" y="-410.6" font-family="Times,serif" font-size="13.00">Generated by RailRoady 1.1.2</text>
<text text-anchor="start" x="8" y="-397.6" font-family="Times,serif" font-size="13.00">http://railroady.prestonlee.com</text>
</g>
<!-- Association -->
<g id="node2" class="node"><title>Association</title>
<ellipse fill="none" stroke="black" cx="257.72" cy="-18" rx="51.726" ry="18"/>
<text text-anchor="middle" x="257.72" y="-13.8" font-family="Times,serif" font-size="14.00">Association</text>
</g>
<!-- Debate -->
<g id="node3" class="node"><title>Debate</title>
<ellipse fill="none" stroke="black" cx="449.72" cy="-263" rx="35.2956" ry="18"/>
<text text-anchor="middle" x="449.72" y="-258.8" font-family="Times,serif" font-size="14.00">Debate</text>
</g>
<!-- Point -->
<g id="node5" class="node"><title>Point</title>
<ellipse fill="none" stroke="black" cx="315.72" cy="-104" rx="28.5668" ry="18"/>
<text text-anchor="middle" x="315.72" y="-99.8" font-family="Times,serif" font-size="14.00">Point</text>
</g>
<!-- Debate&#45;&gt;Point -->
<g id="edge2" class="edge"><title>Debate&#45;&gt;Point</title>
<path fill="none" stroke="#48fa44" d="M445.307,-236.768C440.917,-217.446 432.618,-190.975 417.72,-172 399.403,-148.67 370.615,-130.819 348.286,-119.432"/>
<ellipse fill="none" stroke="#48fa44" cx="446.182" cy="-240.914" rx="4.00001" ry="4.00001"/>
<polygon fill="#48fa44" stroke="#48fa44" points="348.138,-119.359 341.146,-110.912 343.65,-117.155 339.162,-114.951 339.162,-114.951 339.162,-114.951 343.65,-117.155 337.178,-118.99 348.138,-119.359 348.138,-119.359"/>
</g>
<!-- Verdict -->
<g id="node8" class="node"><title>Verdict</title>
<ellipse fill="none" stroke="black" cx="547.72" cy="-190" rx="35.7887" ry="18"/>
<text text-anchor="middle" x="547.72" y="-185.8" font-family="Times,serif" font-size="14.00">Verdict</text>
</g>
<!-- Debate&#45;&gt;Verdict -->
<g id="edge3" class="edge"><title>Debate&#45;&gt;Verdict</title>
<path fill="none" stroke="#85655f" d="M475.813,-243.096C489.401,-233.252 506.021,-221.21 519.859,-211.185"/>
<ellipse fill="none" stroke="#85655f" cx="472.321" cy="-245.626" rx="4.00002" ry="4.00002"/>
<polygon fill="#85655f" stroke="#85655f" points="519.965,-211.108 530.704,-208.885 524.014,-208.175 528.063,-205.241 528.063,-205.241 528.063,-205.241 524.014,-208.175 525.423,-201.597 519.965,-211.108 519.965,-211.108"/>
</g>
<!-- ActsAsVotable::Vote -->
<g id="node10" class="node"><title>ActsAsVotable::Vote</title>
<ellipse fill="none" stroke="black" cx="445.72" cy="-18" rx="83.9272" ry="18"/>
<text text-anchor="middle" x="445.72" y="-13.8" font-family="Times,serif" font-size="14.00">ActsAsVotable::Vote</text>
</g>
<!-- Debate&#45;&gt;ActsAsVotable::Vote -->
<g id="edge4" class="edge"><title>Debate&#45;&gt;ActsAsVotable::Vote</title>
<path fill="none" stroke="#b2f3f4" d="M456.058,-236.77C456.542,-233.175 456.813,-229.509 456.72,-226 455.009,-161.548 450.305,-85.926 447.636,-46.3346"/>
<ellipse fill="none" stroke="#b2f3f4" cx="455.314" cy="-240.977" rx="4.00001" ry="4.00001"/>
<polygon fill="#b2f3f4" stroke="#b2f3f4" points="447.623,-46.1392 451.431,-35.8557 447.282,-41.1508 446.941,-36.1624 446.941,-36.1624 446.941,-36.1624 447.282,-41.1508 442.452,-36.4691 447.623,-46.1392 447.623,-46.1392"/>
<text text-anchor="middle" x="480.158" y="-142.8" font-family="Times,serif" font-size="14.00">votes_for</text>
</g>
<!-- Finding -->
<g id="node4" class="node"><title>Finding</title>
<ellipse fill="none" stroke="black" cx="264.72" cy="-190" rx="37.7525" ry="18"/>
<text text-anchor="middle" x="264.72" y="-185.8" font-family="Times,serif" font-size="14.00">Finding</text>
</g>
<!-- Finding&#45;&gt;Association -->
<g id="edge6" class="edge"><title>Finding&#45;&gt;Association</title>
<path fill="none" stroke="#a4e8fe" d="M263.668,-163.45C262.368,-131.873 260.165,-78.372 258.836,-46.0979"/>
<ellipse fill="none" stroke="#a4e8fe" cx="263.846" cy="-167.767" rx="4" ry="4"/>
<polygon fill="#a4e8fe" stroke="#a4e8fe" points="258.833,-46.0204 262.918,-35.8437 258.627,-41.0247 258.421,-36.0289 258.421,-36.0289 258.421,-36.0289 258.627,-41.0247 253.925,-36.2141 258.833,-46.0204 258.833,-46.0204"/>
</g>
<!-- Finding&#45;&gt;Point -->
<g id="edge7" class="edge"><title>Finding&#45;&gt;Point</title>
<path fill="none" stroke="#1563e9" d="M280.032,-163.78C286.554,-153.038 294.14,-140.544 300.637,-129.844"/>
<polygon fill="#1563e9" stroke="#1563e9" points="279.986,-163.856 270.95,-170.069 277.391,-168.13 274.796,-172.404 274.796,-172.404 274.796,-172.404 277.391,-168.13 278.643,-174.74 279.986,-163.856 279.986,-163.856"/>
<polygon fill="#1563e9" stroke="#1563e9" points="300.821,-129.539 309.858,-123.327 303.416,-125.265 306.011,-120.991 306.011,-120.991 306.011,-120.991 303.416,-125.265 302.165,-118.656 300.821,-129.539 300.821,-129.539"/>
</g>
<!-- Point&#45;&gt;Association -->
<g id="edge9" class="edge"><title>Point&#45;&gt;Association</title>
<path fill="none" stroke="#3387a0" d="M300.253,-80.5992C292.466,-69.3213 283.001,-55.613 274.978,-43.994"/>
<ellipse fill="none" stroke="#3387a0" cx="302.538" cy="-83.9086" rx="4.00002" ry="4.00002"/>
<polygon fill="#3387a0" stroke="#3387a0" points="274.858,-43.82 272.879,-33.0341 272.017,-39.7055 269.176,-35.591 269.176,-35.591 269.176,-35.591 272.017,-39.7055 265.473,-38.1479 274.858,-43.82 274.858,-43.82"/>
</g>
<!-- Point&#45;&gt;ActsAsVotable::Vote -->
<g id="edge10" class="edge"><title>Point&#45;&gt;ActsAsVotable::Vote</title>
<path fill="none" stroke="#0d088b" d="M310.61,-77.8004C310.306,-69.4636 311.651,-60.6328 316.844,-54 324.162,-44.6542 346.243,-37.1853 370.107,-31.587"/>
<ellipse fill="none" stroke="#0d088b" cx="311.001" cy="-81.891" rx="4" ry="4"/>
<polygon fill="#0d088b" stroke="#0d088b" points="370.277,-31.5494 381.015,-33.7724 375.157,-30.4645 380.038,-29.3796 380.038,-29.3796 380.038,-29.3796 375.157,-30.4645 379.062,-24.9868 370.277,-31.5494 370.277,-31.5494"/>
<text text-anchor="middle" x="343.158" y="-56.8" font-family="Times,serif" font-size="14.00">votes_for</text>
</g>
<!-- Research -->
<g id="node6" class="node"><title>Research</title>
<ellipse fill="none" stroke="black" cx="274.72" cy="-263" rx="42.5283" ry="18"/>
<text text-anchor="middle" x="274.72" y="-258.8" font-family="Times,serif" font-size="14.00">Research</text>
</g>
<!-- Research&#45;&gt;Finding -->
<g id="edge12" class="edge"><title>Research&#45;&gt;Finding</title>
<path fill="none" stroke="#d3dc56" d="M271.17,-236.791C270.309,-230.683 269.386,-224.13 268.515,-217.946"/>
<ellipse fill="none" stroke="#d3dc56" cx="271.742" cy="-240.852" rx="4.00001" ry="4.00001"/>
<polygon fill="#d3dc56" stroke="#d3dc56" points="268.513,-217.931 271.575,-207.401 267.816,-212.98 267.119,-208.029 267.119,-208.029 267.119,-208.029 267.816,-212.98 262.663,-208.656 268.513,-217.931 268.513,-217.931"/>
</g>
<!-- User -->
<g id="node7" class="node"><title>User</title>
<ellipse fill="none" stroke="black" cx="364.72" cy="-336" rx="27" ry="18"/>
<text text-anchor="middle" x="364.72" y="-331.8" font-family="Times,serif" font-size="14.00">User</text>
</g>
<!-- User&#45;&gt;Debate -->
<g id="edge16" class="edge"><title>User&#45;&gt;Debate</title>
<path fill="none" stroke="#dcafc6" d="M387.28,-316.156C398.716,-306.603 412.644,-294.969 424.441,-285.115"/>
<ellipse fill="none" stroke="#dcafc6" cx="384.179" cy="-318.746" rx="4.00002" ry="4.00002"/>
<polygon fill="#dcafc6" stroke="#dcafc6" points="424.536,-285.036 435.096,-282.079 428.374,-281.831 432.211,-278.625 432.211,-278.625 432.211,-278.625 428.374,-281.831 429.326,-275.171 424.536,-285.036 424.536,-285.036"/>
</g>
<!-- User&#45;&gt;Point -->
<g id="edge17" class="edge"><title>User&#45;&gt;Point</title>
<path fill="none" stroke="#fe0129" d="M359.442,-310.226C350.166,-266.683 331.016,-176.797 321.438,-131.837"/>
<ellipse fill="none" stroke="#fe0129" cx="360.284" cy="-314.175" rx="4.00001" ry="4.00001"/>
<polygon fill="#fe0129" stroke="#fe0129" points="321.412,-131.718 323.73,-121 320.37,-126.827 319.329,-121.937 319.329,-121.937 319.329,-121.937 320.37,-126.827 314.927,-122.875 321.412,-131.718 321.412,-131.718"/>
</g>
<!-- User&#45;&gt;Research -->
<g id="edge18" class="edge"><title>User&#45;&gt;Research</title>
<path fill="none" stroke="#157f46" d="M341.357,-316.569C329.304,-307.061 314.533,-295.408 301.964,-285.492"/>
<ellipse fill="none" stroke="#157f46" cx="344.651" cy="-319.168" rx="4.00002" ry="4.00002"/>
<polygon fill="#157f46" stroke="#157f46" points="301.923,-285.46 296.86,-275.734 297.998,-282.364 294.072,-279.267 294.072,-279.267 294.072,-279.267 297.998,-282.364 291.285,-282.8 301.923,-285.46 301.923,-285.46"/>
</g>
<!-- User&#45;&gt;Verdict -->
<g id="edge15" class="edge"><title>User&#45;&gt;Verdict</title>
<path fill="none" stroke="#aa4a68" d="M397.984,-327.321C426.054,-319.485 465.984,-305.005 493.72,-281 513.758,-263.658 528.456,-236.975 537.415,-217.16"/>
<ellipse fill="none" stroke="#aa4a68" cx="393.905" cy="-328.414" rx="4.00001" ry="4.00001"/>
<polygon fill="#aa4a68" stroke="#aa4a68" points="537.499,-216.964 545.594,-209.567 539.481,-212.374 541.462,-207.783 541.462,-207.783 541.462,-207.783 539.481,-212.374 537.331,-206 537.499,-216.964 537.499,-216.964"/>
</g>
<!-- User&#45;&gt;ActsAsVotable::Vote -->
<g id="edge14" class="edge"><title>User&#45;&gt;ActsAsVotable::Vote</title>
<path fill="none" stroke="#3d495e" d="M374.641,-310.528C379.247,-297.035 383.72,-279.85 383.72,-264 383.72,-264 383.72,-264 383.72,-103 383.72,-79.1678 400.076,-57.6576 415.986,-42.3712"/>
<ellipse fill="none" stroke="#3d495e" cx="373.154" cy="-314.645" rx="4.00001" ry="4.00001"/>
<polygon fill="#3d495e" stroke="#3d495e" points="416.281,-42.1035 426.711,-38.7166 419.984,-38.7437 423.687,-35.3839 423.687,-35.3839 423.687,-35.3839 419.984,-38.7437 420.663,-32.0512 416.281,-42.1035 416.281,-42.1035"/>
<text text-anchor="middle" x="398.496" y="-185.8" font-family="Times,serif" font-size="14.00">votes</text>
</g>
<!-- Verdict&#45;&gt;ActsAsVotable::Vote -->
<g id="edge20" class="edge"><title>Verdict&#45;&gt;ActsAsVotable::Vote</title>
<path fill="none" stroke="#b7faad" d="M542.559,-163.92C535.558,-134.878 520.712,-86.8334 493.72,-54 490.118,-49.6182 485.848,-45.5037 481.364,-41.7438"/>
<ellipse fill="none" stroke="#b7faad" cx="543.508" cy="-168.034" rx="4.00001" ry="4.00001"/>
<polygon fill="#b7faad" stroke="#b7faad" points="481.059,-41.5075 475.916,-31.8225 477.108,-38.4428 473.158,-35.3781 473.158,-35.3781 473.158,-35.3781 477.108,-38.4428 470.399,-38.9337 481.059,-41.5075 481.059,-41.5075"/>
<text text-anchor="middle" x="556.158" y="-99.8" font-family="Times,serif" font-size="14.00">votes_for</text>
</g>
<!-- ActiveRecord::Base -->
<g id="node9" class="node"><title>ActiveRecord::Base</title>
<ellipse fill="none" stroke="black" cx="274.72" cy="-427.5" rx="81.1422" ry="18"/>
<text text-anchor="middle" x="274.72" y="-423.3" font-family="Times,serif" font-size="14.00">ActiveRecord::Base</text>
</g>
<!-- ActiveRecord::Base&#45;&gt;Association -->
<g id="edge1" class="edge"><title>ActiveRecord::Base&#45;&gt;Association</title>
<path fill="none" stroke="black" d="M236.098,-411.583C192.544,-393.531 127.72,-362.397 127.72,-337 127.72,-337 127.72,-337 127.72,-103 127.72,-60.8124 176.615,-38.777 214.432,-28.0432"/>
</g>
<!-- ActiveRecord::Base&#45;&gt;Debate -->
<g id="edge5" class="edge"><title>ActiveRecord::Base&#45;&gt;Debate</title>
<path fill="none" stroke="black" d="M312.529,-411.426C339.651,-399.14 375.68,-379.638 400.72,-354 421.604,-332.618 436.18,-300.54 443.734,-281.013"/>
</g>
<!-- ActiveRecord::Base&#45;&gt;Finding -->
<g id="edge8" class="edge"><title>ActiveRecord::Base&#45;&gt;Finding</title>
<path fill="none" stroke="black" d="M266.492,-409.553C254.074,-382.936 231.104,-329.369 222.72,-281 219.988,-265.235 217.528,-260.134 222.72,-245 227.808,-230.171 238.816,-216.278 248.285,-206.297"/>
</g>
<!-- ActiveRecord::Base&#45;&gt;Point -->
<g id="edge11" class="edge"><title>ActiveRecord::Base&#45;&gt;Point</title>
<path fill="none" stroke="black" d="M233.823,-411.925C202.893,-397.98 165.72,-373.606 165.72,-337 165.72,-337 165.72,-337 165.72,-189 165.72,-133.783 244.055,-114.504 287.506,-108.058"/>
</g>
<!-- ActiveRecord::Base&#45;&gt;Research -->
<g id="edge13" class="edge"><title>ActiveRecord::Base&#45;&gt;Research</title>
<path fill="none" stroke="black" d="M274.72,-409.417C274.72,-378.289 274.72,-312.663 274.72,-281.343"/>
</g>
<!-- ActiveRecord::Base&#45;&gt;User -->
<g id="edge19" class="edge"><title>ActiveRecord::Base&#45;&gt;User</title>
<path fill="none" stroke="black" d="M291.649,-409.666C308.554,-392.854 334.26,-367.291 350.245,-351.395"/>
</g>
<!-- ActiveRecord::Base&#45;&gt;Verdict -->
<g id="edge21" class="edge"><title>ActiveRecord::Base&#45;&gt;Verdict</title>
<path fill="none" stroke="black" d="M321.473,-412.629C378.574,-393.096 473.497,-351.727 521.72,-281 536.929,-258.693 543.346,-227.473 545.979,-208.279"/>
</g>
</g>
</svg>
