<?xml version="1.0" encoding="UTF-8" standalone="no"?>
<!DOCTYPE svg PUBLIC "-//W3C//DTD SVG 1.1//EN"
 "http://www.w3.org/Graphics/SVG/1.1/DTD/svg11.dtd">
<!-- Generated by graphviz version 2.38.0 (20140413.2041)
 -->
<!-- Title: models_diagram Pages: 1 -->
<svg width="354pt" height="349pt"
 viewBox="0.00 0.00 353.74 349.00" xmlns="http://www.w3.org/2000/svg" xmlns:xlink="http://www.w3.org/1999/xlink">
<g id="graph0" class="graph" transform="scale(1 1) rotate(0) translate(4 345)">
<title>models_diagram</title>
<polygon fill="white" stroke="none" points="-4,4 -4,-345 349.739,-345 349.739,4 -4,4"/>
<!-- Association -->
<g id="node1" class="node"><title>Association</title>
<ellipse fill="none" stroke="black" cx="51.8628" cy="-18" rx="51.726" ry="18"/>
<text text-anchor="middle" x="51.8628" y="-13.8" font-family="Times,serif" font-size="14.00">Association</text>
</g>
<!-- Debate -->
<g id="node2" class="node"><title>Debate</title>
<ellipse fill="none" stroke="black" cx="285.863" cy="-177" rx="35.2956" ry="18"/>
<text text-anchor="middle" x="285.863" y="-172.8" font-family="Times,serif" font-size="14.00">Debate</text>
</g>
<!-- Point -->
<g id="node4" class="node"><title>Point</title>
<ellipse fill="none" stroke="black" cx="100.863" cy="-104" rx="28.5668" ry="18"/>
<text text-anchor="middle" x="100.863" y="-99.8" font-family="Times,serif" font-size="14.00">Point</text>
</g>
<!-- Debate&#45;&gt;Point -->
<g id="edge1" class="edge"><title>Debate&#45;&gt;Point</title>
<path fill="none" stroke="#2e29d3" d="M251.015,-162.626C217.567,-149.789 167.393,-130.533 134.393,-117.868"/>
<ellipse fill="none" stroke="#2e29d3" cx="254.831" cy="-164.09" rx="4.00001" ry="4.00001"/>
<polygon fill="#2e29d3" stroke="#2e29d3" points="134.077,-117.747 126.353,-109.963 129.408,-115.955 124.74,-114.164 124.74,-114.164 124.74,-114.164 129.408,-115.955 123.128,-118.365 134.077,-117.747 134.077,-117.747"/>
</g>
<!-- Verdict -->
<g id="node7" class="node"><title>Verdict</title>
<ellipse fill="none" stroke="black" cx="228.863" cy="-104" rx="35.7887" ry="18"/>
<text text-anchor="middle" x="228.863" y="-99.8" font-family="Times,serif" font-size="14.00">Verdict</text>
</g>
<!-- Debate&#45;&gt;Verdict -->
<g id="edge2" class="edge"><title>Debate&#45;&gt;Verdict</title>
<path fill="none" stroke="#04d34f" d="M270.475,-152.86C267.393,-148.511 264.103,-144.058 260.863,-140 257.752,-136.104 254.321,-132.092 250.897,-128.237"/>
<ellipse fill="none" stroke="#04d34f" cx="272.829" cy="-156.251" rx="4.00002" ry="4.00002"/>
<polygon fill="#04d34f" stroke="#04d34f" points="250.711,-128.032 247.311,-117.606 247.346,-124.333 243.982,-120.634 243.982,-120.634 243.982,-120.634 247.346,-124.333 240.653,-123.662 250.711,-128.032 250.711,-128.032"/>
</g>
<!-- ActsAsVotable::Vote -->
<g id="node8" class="node"><title>ActsAsVotable::Vote</title>
<ellipse fill="none" stroke="black" cx="209.863" cy="-18" rx="83.9272" ry="18"/>
<text text-anchor="middle" x="209.863" y="-13.8" font-family="Times,serif" font-size="14.00">ActsAsVotable::Vote</text>
</g>
<!-- Debate&#45;&gt;ActsAsVotable::Vote -->
<g id="edge3" class="edge"><title>Debate&#45;&gt;ActsAsVotable::Vote</title>
<path fill="none" stroke="#88b919" d="M290.951,-151.008C294.884,-124.646 296.875,-82.989 277.863,-54 273.998,-48.1068 268.812,-43.1528 263.02,-39.0019"/>
<ellipse fill="none" stroke="#88b919" cx="290.283" cy="-155.047" rx="4.00001" ry="4.00001"/>
<polygon fill="#88b919" stroke="#88b919" points="262.663,-38.7787 256.568,-29.6629 258.423,-36.1288 254.183,-33.4789 254.183,-33.4789 254.183,-33.4789 258.423,-36.1288 251.798,-37.295 262.663,-38.7787 262.663,-38.7787"/>
<text text-anchor="middle" x="319.301" y="-99.8" font-family="Times,serif" font-size="14.00">votes_for</text>
</g>
<!-- Finding -->
<g id="node3" class="node"><title>Finding</title>
<ellipse fill="none" stroke="black" cx="90.8628" cy="-177" rx="37.7525" ry="18"/>
<text text-anchor="middle" x="90.8628" y="-172.8" font-family="Times,serif" font-size="14.00">Finding</text>
</g>
<!-- Finding&#45;&gt;Association -->
<g id="edge4" class="edge"><title>Finding&#45;&gt;Association</title>
<path fill="none" stroke="#e4c76e" d="M76.3423,-152.659C71.2586,-143.433 66.0331,-132.532 62.8628,-122 55.3592,-97.0707 52.8244,-67.3987 52.0384,-46.3197"/>
<ellipse fill="none" stroke="#e4c76e" cx="78.3607" cy="-156.188" rx="4.00002" ry="4.00002"/>
<polygon fill="#e4c76e" stroke="#e4c76e" points="52.0339,-46.1472 56.2681,-36.0318 51.9018,-41.149 51.7697,-36.1507 51.7697,-36.1507 51.7697,-36.1507 51.9018,-41.149 47.2712,-36.2696 52.0339,-46.1472 52.0339,-46.1472"/>
</g>
<!-- Finding&#45;&gt;Point -->
<g id="edge5" class="edge"><title>Finding&#45;&gt;Point</title>
<path fill="none" stroke="#8d7119" d="M94.7004,-148.753C95.4718,-143.276 96.2824,-137.521 97.0529,-132.051"/>
<polygon fill="#8d7119" stroke="#8d7119" points="94.6783,-148.911 88.8275,-158.185 93.9809,-153.862 93.2836,-158.813 93.2836,-158.813 93.2836,-158.813 93.9809,-153.862 97.7396,-159.441 94.6783,-148.911 94.6783,-148.911"/>
<polygon fill="#8d7119" stroke="#8d7119" points="97.0696,-131.931 102.92,-122.656 97.767,-126.98 98.4644,-122.029 98.4644,-122.029 98.4644,-122.029 97.767,-126.98 94.0084,-121.401 97.0696,-131.931 97.0696,-131.931"/>
</g>
<!-- Point&#45;&gt;Association -->
<g id="edge6" class="edge"><title>Point&#45;&gt;Association</title>
<path fill="none" stroke="#04eb4d" d="M87.3618,-79.8554C80.9879,-68.9286 73.3605,-55.8532 66.8124,-44.6278"/>
<ellipse fill="none" stroke="#04eb4d" cx="89.3996" cy="-83.3488" rx="4.00002" ry="4.00002"/>
<polygon fill="#04eb4d" stroke="#04eb4d" points="66.6557,-44.3591 65.5039,-33.4538 64.1363,-40.0402 61.6169,-35.7213 61.6169,-35.7213 61.6169,-35.7213 64.1363,-40.0402 57.7299,-37.9887 66.6557,-44.3591 66.6557,-44.3591"/>
</g>
<!-- Point&#45;&gt;ActsAsVotable::Vote -->
<g id="edge7" class="edge"><title>Point&#45;&gt;ActsAsVotable::Vote</title>
<path fill="none" stroke="#daf0af" d="M96.5322,-77.8952C96.4215,-69.5666 97.8932,-60.7168 102.987,-54 110.314,-44.3376 120.377,-37.3035 131.417,-32.1912"/>
<ellipse fill="none" stroke="#daf0af" cx="96.8161" cy="-81.9614" rx="4" ry="4"/>
<polygon fill="#daf0af" stroke="#daf0af" points="131.621,-32.108 142.58,-32.5004 136.251,-30.2206 140.881,-28.3333 140.881,-28.3333 140.881,-28.3333 136.251,-30.2206 139.183,-24.1662 131.621,-32.108 131.621,-32.108"/>
<text text-anchor="middle" x="130.301" y="-56.8" font-family="Times,serif" font-size="14.00">votes_for</text>
</g>
<!-- Research -->
<g id="node5" class="node"><title>Research</title>
<ellipse fill="none" stroke="black" cx="92.8628" cy="-250" rx="42.5283" ry="18"/>
<text text-anchor="middle" x="92.8628" y="-245.8" font-family="Times,serif" font-size="14.00">Research</text>
</g>
<!-- Research&#45;&gt;Finding -->
<g id="edge8" class="edge"><title>Research&#45;&gt;Finding</title>
<path fill="none" stroke="#38b446" d="M92.1527,-223.791C91.9849,-217.832 91.8051,-211.45 91.6346,-205.399"/>
<ellipse fill="none" stroke="#38b446" cx="92.266" cy="-227.814" rx="4" ry="4"/>
<polygon fill="#38b446" stroke="#38b446" points="91.6242,-205.025 95.8407,-194.902 91.4834,-200.027 91.3425,-195.029 91.3425,-195.029 91.3425,-195.029 91.4834,-200.027 86.8443,-195.156 91.6242,-205.025 91.6242,-205.025"/>
</g>
<!-- User -->
<g id="node6" class="node"><title>User</title>
<ellipse fill="none" stroke="black" cx="164.863" cy="-323" rx="27" ry="18"/>
<text text-anchor="middle" x="164.863" y="-318.8" font-family="Times,serif" font-size="14.00">User</text>
</g>
<!-- User&#45;&gt;Debate -->
<g id="edge11" class="edge"><title>User&#45;&gt;Debate</title>
<path fill="none" stroke="#b2e559" d="M196.977,-311.966C210.655,-306.39 225.94,-298.256 236.863,-287 259.141,-264.043 272.358,-229.2 279.348,-205.116"/>
<ellipse fill="none" stroke="#b2e559" cx="192.891" cy="-313.529" rx="4.00001" ry="4.00001"/>
<polygon fill="#b2e559" stroke="#b2e559" points="279.42,-204.852 286.392,-196.389 280.735,-200.029 282.051,-195.205 282.051,-195.205 282.051,-195.205 280.735,-200.029 277.709,-194.021 279.42,-204.852 279.42,-204.852"/>
</g>
<!-- User&#45;&gt;Point -->
<g id="edge12" class="edge"><title>User&#45;&gt;Point</title>
<path fill="none" stroke="#575ba3" d="M130.418,-317.415C101.054,-311.487 60.5655,-298.07 40.8628,-268 32.8956,-255.841 32.3504,-184.319 43.8628,-159 50.2192,-145.02 62.0195,-132.887 73.2415,-123.683"/>
<ellipse fill="none" stroke="#575ba3" cx="134.447" cy="-318.164" rx="4.00001" ry="4.00001"/>
<polygon fill="#575ba3" stroke="#575ba3" points="73.3119,-123.628 83.9762,-121.074 77.2682,-120.571 81.2245,-117.513 81.2245,-117.513 81.2245,-117.513 77.2682,-120.571 78.4728,-113.953 73.3119,-123.628 73.3119,-123.628"/>
</g>
<!-- User&#45;&gt;Research -->
<g id="edge13" class="edge"><title>User&#45;&gt;Research</title>
<path fill="none" stroke="#4e880a" d="M144.339,-301.761C135.556,-293.1 125.254,-282.942 116.184,-273.997"/>
<ellipse fill="none" stroke="#4e880a" cx="147.444" cy="-304.823" rx="4.00002" ry="4.00002"/>
<polygon fill="#4e880a" stroke="#4e880a" points="116.035,-273.85 112.074,-263.625 112.475,-270.34 108.915,-266.829 108.915,-266.829 108.915,-266.829 112.475,-270.34 105.755,-270.033 116.035,-273.85 116.035,-273.85"/>
</g>
<!-- User&#45;&gt;Verdict -->
<g id="edge10" class="edge"><title>User&#45;&gt;Verdict</title>
<path fill="none" stroke="#bd8caf" d="M174.96,-297.777C176.337,-294.188 177.681,-290.515 178.863,-287 197.031,-232.956 213.601,-168.299 222.351,-132.422"/>
<ellipse fill="none" stroke="#bd8caf" cx="173.414" cy="-301.688" rx="4.00001" ry="4.00001"/>
<polygon fill="#bd8caf" stroke="#bd8caf" points="222.459,-131.976 229.183,-123.313 223.634,-127.116 224.809,-122.256 224.809,-122.256 224.809,-122.256 223.634,-127.116 220.435,-121.198 222.459,-131.976 222.459,-131.976"/>
</g>
<!-- User&#45;&gt;ActsAsVotable::Vote -->
<g id="edge9" class="edge"><title>User&#45;&gt;ActsAsVotable::Vote</title>
<path fill="none" stroke="#910897" d="M164.863,-296.442C164.863,-282.931 164.863,-266.066 164.863,-251 164.863,-251 164.863,-251 164.863,-140 164.863,-105.374 181.252,-68.4732 194.248,-44.6536"/>
<ellipse fill="none" stroke="#910897" cx="164.863" cy="-300.784" rx="4" ry="4"/>
<polygon fill="#910897" stroke="#910897" points="194.278,-44.6011 203.116,-38.1096 196.738,-40.2482 199.198,-35.8954 199.198,-35.8954 199.198,-35.8954 196.738,-40.2482 195.281,-33.6812 194.278,-44.6011 194.278,-44.6011"/>
<text text-anchor="middle" x="179.639" y="-172.8" font-family="Times,serif" font-size="14.00">votes</text>
</g>
<!-- Verdict&#45;&gt;ActsAsVotable::Vote -->
<g id="edge14" class="edge"><title>Verdict&#45;&gt;ActsAsVotable::Vote</title>
<path fill="none" stroke="#a513df" d="M223.219,-78.0469C220.959,-68.0569 218.349,-56.5171 216.039,-46.304"/>
<ellipse fill="none" stroke="#a513df" cx="224.135" cy="-82.0999" rx="4.00001" ry="4.00001"/>
<polygon fill="#a513df" stroke="#a513df" points="215.974,-46.0153 218.156,-35.2689 214.87,-41.1385 213.767,-36.2617 213.767,-36.2617 213.767,-36.2617 214.87,-41.1385 209.378,-37.2545 215.974,-46.0153 215.974,-46.0153"/>
<text text-anchor="middle" x="247.301" y="-56.8" font-family="Times,serif" font-size="14.00">votes_for</text>
</g>
</g>
</svg>
